<?xml version="1.0" encoding="UTF-8" standalone="no"?>
<!-- Created with Inkscape (http://www.inkscape.org/) -->

<svg
   xmlns:dc="http://purl.org/dc/elements/1.1/"
   xmlns:cc="http://creativecommons.org/ns#"
   xmlns:rdf="http://www.w3.org/1999/02/22-rdf-syntax-ns#"
   xmlns:svg="http://www.w3.org/2000/svg"
   xmlns="http://www.w3.org/2000/svg"
   xmlns:sodipodi="http://sodipodi.sourceforge.net/DTD/sodipodi-0.dtd"
   xmlns:inkscape="http://www.inkscape.org/namespaces/inkscape"
   version="1.1"
   width="439.07971"
   height="136.29247"
   id="svg2"
   inkscape:version="0.48.5 r10040"
   sodipodi:docname="paths.svg">
  <sodipodi:namedview
     pagecolor="#ffffff"
     bordercolor="#666666"
     borderopacity="1"
     objecttolerance="10"
     gridtolerance="10"
     guidetolerance="10"
     inkscape:pageopacity="0"
     inkscape:pageshadow="2"
     inkscape:window-width="1920"
     inkscape:window-height="1058"
     id="namedview14"
     showgrid="false"
     inkscape:zoom="5.1018396"
     inkscape:cx="358.10246"
     inkscape:cy="25.830852"
     inkscape:window-x="0"
     inkscape:window-y="0"
     inkscape:window-maximized="1"
     inkscape:current-layer="layer1" />
  <defs
     id="defs4" />
  <metadata
     id="metadata7">
    <rdf:RDF>
      <cc:Work
         rdf:about="">
        <dc:format>image/svg+xml</dc:format>
        <dc:type
           rdf:resource="http://purl.org/dc/dcmitype/StillImage" />
        <dc:title />
      </cc:Work>
    </rdf:RDF>
  </metadata>
  <g
     transform="translate(-130.91682,-134.54314)"
     id="layer1">
    <path
       d="M 152.49189,207.63045 C 152.49189,207.63045 190.05445,273.66119 239.43337,269.49657 288.81229,265.33195 303.20534,129.69837 354.03023,135.89942 378.82668,138.92479 393.45711,191.80794 418.7898,195.7312 438.49424,198.78281 448.99531,177.40769 476.24188,177.5272 498.5804,177.62518 516.97655,191.55084 533.24373,199.4747 547.94265,206.63465 561.64482,207.87465 561.64482,207.87465"
       id="path2987"
       style="fill:none;stroke:#333333;stroke-width:1.3;stroke-linecap:butt;stroke-linejoin:miter;stroke-miterlimit:4;stroke-opacity:1;stroke-dasharray:1.3,1.3;stroke-dashoffset:0" />
    <path
       d="M 137.88583,197.20677 C 137.88583,197.20677 156.71942,146.82577 204.07803,145.69161 251.43665,144.55744 274.76859,260.15107 324.73581,248.97523 349.53226,243.42917 370.22361,159.42178 395.5563,163.34504 415.26074,166.39665 424.75165,234.92511 451.99822,235.04462 474.33674,235.1426 488.88549,188.72935 518.59652,188.80682 539.35648,188.86095 562.1499,208.31845 562.1499,208.31845"
       id="path2987-7"
       style="fill:none;stroke:#333333;stroke-width:1.3;stroke-linecap:butt;stroke-linejoin:miter;stroke-miterlimit:4;stroke-opacity:1;stroke-dasharray:1.3,1.3;stroke-dashoffset:0" />
    <path
       d="M 162.63456,347.02316 A 12.879445,12.879445 0 1 1 136.87567,347.02316 12.879445,12.879445 0 1 1 162.63456,347.02316 z"
       transform="matrix(0.76372054,0,0,0.76372054,445.78917,-58.164218)"
       id="path3821"
       style="fill:#3dc9b3;fill-opacity:1;fill-rule:nonzero;stroke:#3dc9b3;stroke-width:0;stroke-linecap:butt;stroke-linejoin:miter;stroke-miterlimit:4;stroke-opacity:1;stroke-dasharray:none;stroke-dashoffset:0" />
    <path
       d="M 157.74818,209.84539 A 4.852465,4.852465 0 0 1 148.04325,209.84539 4.852465,4.852465 0 1 1 157.74818,209.84539 z"
       id="path3821-3-4"
       style="fill:#333333;fill-opacity:1;fill-rule:nonzero;stroke:#ffffff;stroke-width:0.98664415;stroke-linecap:butt;stroke-linejoin:miter;stroke-miterlimit:4;stroke-opacity:1;stroke-dasharray:none;stroke-dashoffset:0"
       inkscape:connector-curvature="0" />
    <path
       d="M 162.63456,347.02316 A 12.879445,12.879445 0 1 1 136.87567,347.02316 12.879445,12.879445 0 1 1 162.63456,347.02316 z"
       transform="matrix(0.56235482,0,0,0.56235482,57.710924,42.01893)"
       id="path3821-3-4-6"
       style="fill:#3dc9b3;fill-opacity:1;fill-rule:nonzero;stroke:#ffffff;stroke-width:2.61875892;stroke-linecap:butt;stroke-linejoin:miter;stroke-miterlimit:4;stroke-opacity:1;stroke-dasharray:none;stroke-dashoffset:0" />
    <path
       d="M 144.15145,194.54541 A 4.9782706,4.9782706 0 1 1 134.19491,194.54541 4.9782706,4.9782706 0 1 1 144.15145,194.54541 z"
       id="path3821-3-4-3"
       style="fill:#333333;fill-opacity:1;fill-rule:nonzero;stroke:#ffffff;stroke-width:1.01222456;stroke-linecap:butt;stroke-linejoin:miter;stroke-miterlimit:4;stroke-opacity:1;stroke-dasharray:none;stroke-dashoffset:0"
       inkscape:connector-curvature="0" />
    <path
       d="M 140.4112,237.20036 C 140.4112,237.20036 150.65849,236.31685 174.78361,219.02023 198.90872,201.72362 259.4364,142.19159 310.08861,206.1363 326.94079,227.41095 354.99421,230.9185 394.04107,195.76248 409.54536,181.80313 424.56483,162.96003 450.32935,198.10659 460.40099,211.84578 479.08879,233.05627 492.90941,233.11689 522.35847,232.94598 562.53264,208.24305 562.1499,207.40086"
       id="path2987-7-0"
       style="fill:none;stroke:#3dc9b3;stroke-width:2.29999995;stroke-linecap:butt;stroke-linejoin:miter;stroke-miterlimit:4;stroke-opacity:1;stroke-dasharray:2.3, 2.3;stroke-dashoffset:0" />
    <path
       d="M 162.63456,347.02316 A 12.879445,12.879445 0 1 1 136.87567,347.02316 12.879445,12.879445 0 1 1 162.63456,347.02316 z"
       transform="matrix(0.56235482,0,0,0.56235482,475.96305,11.676315)"
       id="path3821-3"
       style="fill:#3dc9b3;fill-opacity:1;fill-rule:nonzero;stroke:#ffffff;stroke-width:2.61875892;stroke-linecap:butt;stroke-linejoin:miter;stroke-miterlimit:4;stroke-opacity:1;stroke-dasharray:none;stroke-dashoffset:0" />
  </g>
</svg>
